name C:/MyDriveSym/Projects/mobilecap/Data\Session20210819_0002\mocap\ForceDataProcessed\walking4_forces.mot
datacolumns 19
datarows 9
range 0.34700000 0.35100000
endheader 
time	R_ground_force_vx	R_ground_force_vy	R_ground_force_vz	R_ground_force_px	R_ground_force_py	R_ground_force_pz	R_ground_torque_x	R_ground_torque_y	R_ground_torque_z	L_ground_force_vx	L_ground_force_vy	L_ground_force_vz	L_ground_force_px	L_ground_force_py	L_ground_force_pz	L_ground_torque_x	L_ground_torque_y	L_ground_torque_z	
          0.34700000	        -15.66801500	        455.41010300	        -25.78911000	          0.17526500	          0.00600000	         -0.18697200	          0.00000000	         -1.41006900	          0.00000000	          0.00000000	          0.00000000	          0.00000000	          0.66900400	          0.00000000	         -0.26571800	          0.00000000	          0.00000000	          0.00000000	
          0.34750000	        -15.50519500	        455.40775700	        -25.78476800	          0.17545900	          0.00600000	         -0.18692600	          0.00000000	         -1.42112100	          0.00000000	          0.00000000	          0.00000000	          0.00000000	          0.66900400	          0.00000000	         -0.26571800	          0.00000000	          0.00000000	          0.00000000	
          0.34800000	        -15.34311400	        455.41368800	        -25.78091700	          0.17565200	          0.00600000	         -0.18688000	          0.00000000	         -1.43219500	          0.00000000	          0.00000000	          0.00000000	          0.00000000	          0.66900400	          0.00000000	         -0.26571800	          0.00000000	          0.00000000	          0.00000000	
          0.34850000	        -15.18176000	        455.42788000	        -25.77755800	          0.17584700	          0.00600000	         -0.18683500	          0.00000000	         -1.44329100	          0.00000000	          0.00000000	          0.00000000	          0.00000000	          0.66900400	          0.00000000	         -0.26571800	          0.00000000	          0.00000000	          0.00000000	
          0.34900000	        -15.02112000	        455.45031500	        -25.77469000	          0.17604100	          0.00600000	         -0.18678900	          0.00000000	         -1.45441000	          0.00000000	          0.00000000	          0.00000000	          0.00000000	          0.66900400	          0.00000000	         -0.26571800	          0.00000000	          0.00000000	          0.00000000	
          0.34950000	        -14.86118400	        455.48097500	        -25.77231500	          0.17623600	          0.00600000	         -0.18674400	          0.00000000	         -1.46555200	          0.00000000	          0.00000000	          0.00000000	          0.00000000	          0.66900400	          0.00000000	         -0.26571800	          0.00000000	          0.00000000	          0.00000000	
          0.35000000	        -14.70193900	        455.51984200	        -25.77043100	          0.17643000	          0.00600000	         -0.18669900	          0.00000000	         -1.47671600	          0.00000000	          0.00000000	          0.00000000	          0.00000000	          0.66900400	          0.00000000	         -0.26571800	          0.00000000	          0.00000000	          0.00000000	
          0.35050000	        -14.54337200	        455.56689600	        -25.76904000	          0.17662600	          0.00600000	         -0.18665400	          0.00000000	         -1.48790300	          0.00000000	          0.00000000	          0.00000000	          0.00000000	          0.66900400	          0.00000000	         -0.26571800	          0.00000000	          0.00000000	          0.00000000	
          0.35100000	        -14.38547300	        455.62211900	        -25.76814000	          0.17682100	          0.00600000	         -0.18661000	          0.00000000	         -1.49911300	          0.00000000	          0.00000000	          0.00000000	          0.00000000	          0.66900400	          0.00000000	         -0.26571800	          0.00000000	          0.00000000	          0.00000000	
